# xmcd
# Track frame offsets:
# 150
# 16252
# 31995
# 48345
# 62166
# 75632
# 90066
# 103531
# 118884
# 133203
# 157290
# 169864
#
# Disc length: 2361 seconds
# Revision: 0
# Processed by: cddbd v1.4PL0 Copyright (c) Steve Scherf et al.
# Submitted via: VisiTrax 2.9.5.180 - For more info visit www.synapsa.com
#
DISCID=9709370c
DTITLE=Various Artist - New Country Volume 9 November 1999
DYEAR=1999
DGENRE=
TTITLE0=Oak Ridge Bos - Ain't no short way home
TTITLE1=Mike Randolph - Don't know where I'm going
TTITLE2=Debbie West - I can't imagine
TTITLE3=Kenny Isaacs - Last kiss
TTITLE4=Fred McCarty - Looking for lucky
TTITLE5=Jim Arp - Rolling out of Memphis
TTITLE6=Jamie Harper - She has been set free
TTITLE7=Donna Little - Straight from the heart
TTITLE8=Wall Brothers - Two steps to paradise
TTITLE9=Suzie Merwine - A christmas miracle
TTITLE10=Barry Laye - Randolph the redneck reindeer
TTITLE11=Various Artist - Liner
EXTD=
EXTT0=
EXTT1=
EXTT2=
EXTT3=
EXTT4=
EXTT5=
EXTT6=
EXTT7=
EXTT8=
EXTT9=
EXTT10=
EXTT11=
PLAYORDER=
